<?xml version="1.0" encoding="UTF-8" standalone="no"?>
<!DOCTYPE svg PUBLIC "-//W3C//DTD SVG 1.1//EN"
 "http://www.w3.org/Graphics/SVG/1.1/DTD/svg11.dtd">
<!-- Generated by graphviz version 13.1.0 (20250701.0955)
 -->
<!-- Title: CronFlow Pages: 1 -->
<svg width="1715pt" height="279pt"
 viewBox="0.00 0.00 1715.00 279.00" xmlns="http://www.w3.org/2000/svg" xmlns:xlink="http://www.w3.org/1999/xlink">
<g id="graph0" class="graph" transform="scale(1 1) rotate(0) translate(4 275)">
<title>CronFlow</title>
<polygon fill="white" stroke="none" points="-4,4 -4,-275 1711.25,-275 1711.25,4 -4,4"/>
<text xml:space="preserve" text-anchor="start" x="734" y="-250.9" font-family="Helvetica,sans-Serif" font-weight="bold" font-size="18.00">Event Flow — CRON trigger</text>
<text xml:space="preserve" text-anchor="start" x="704" y="-239.55" font-family="Helvetica,sans-Serif" font-style="italic" font-size="11.00">“Every Monday 9am, send me a HN digest about LLM tooling.”</text>
<g id="clust1" class="cluster">
<title>cluster_setup</title>
<polygon fill="#fff8e1" stroke="#fff8e1" stroke-width="2" points="18.88,-141 18.88,-226 635.5,-226 635.5,-141 18.88,-141"/>
<text xml:space="preserve" text-anchor="start" x="265.69" y="-205.9" font-family="Helvetica,sans-Serif" font-weight="bold" font-size="18.00" fill="#7a5a00">SET&#45;UP (once)</text>
</g>
<g id="clust2" class="cluster">
<title>cluster_runtime</title>
<polygon fill="#7a2e00" stroke="#7a2e00" stroke-width="3" stroke-dasharray="5,2" points="8,-8 8,-93 833.25,-93 833.25,-8 8,-8"/>
<text xml:space="preserve" text-anchor="start" x="285.62" y="-72.9" font-family="Helvetica,sans-Serif" font-weight="bold" font-size="18.00" fill="#7a2e00">RUNTIME — every Monday 9am</text>
</g>
<g id="clust3" class="cluster">
<title>cluster_agent</title>
<polygon fill="#fff1e6" stroke="#fff1e6" stroke-width="2" points="884.25,-12 884.25,-91 1322.75,-91 1322.75,-12 884.25,-12"/>
<text xml:space="preserve" text-anchor="start" x="1040.88" y="-70.9" font-family="Helvetica,sans-Serif" font-weight="bold" font-size="18.00" fill="#7a2e00">AGENT WORK</text>
</g>
<g id="clust4" class="cluster">
<title>cluster_out</title>
<polygon fill="#eaf3ff" stroke="#eaf3ff" stroke-width="2" points="1347.75,-12 1347.75,-91 1707.25,-91 1707.25,-12 1347.75,-12"/>
<text xml:space="preserve" text-anchor="start" x="1355.75" y="-70.9" font-family="Helvetica,sans-Serif" font-weight="bold" font-size="18.00" fill="#0f3d6e">OUTCOME — write to channel</text>
<text xml:space="preserve" text-anchor="start" x="1614.5" y="-70.9" font-family="Helvetica,sans-Serif" font-size="18.00" fill="#0f3d6e"> &#160;</text>
<text xml:space="preserve" text-anchor="start" x="1625" y="-70.9" font-family="Helvetica,sans-Serif" font-size="9.00" fill="#0f3d6e">(no Event emitted)</text>
</g>
<!-- s1 -->
<g id="node1" class="node">
<title>s1</title>
<path fill="#ffffff" stroke="#333333" d="M93.12,-188C93.12,-188 38.88,-188 38.88,-188 32.88,-188 26.88,-182 26.88,-176 26.88,-176 26.88,-164 26.88,-164 26.88,-158 32.88,-152 38.88,-152 38.88,-152 93.12,-152 93.12,-152 99.12,-152 105.12,-158 105.12,-164 105.12,-164 105.12,-176 105.12,-176 105.12,-182 99.12,-188 93.12,-188"/>
<text xml:space="preserve" text-anchor="start" x="49.5" y="-171" font-family="Helvetica,sans-Serif" font-weight="bold" font-size="10.00">1. User</text>
<text xml:space="preserve" text-anchor="start" x="34.88" y="-161.95" font-family="Helvetica,sans-Serif" font-size="9.00">types utterance</text>
</g>
<!-- s2 -->
<g id="node2" class="node">
<title>s2</title>
<path fill="#ffe9d4" stroke="#333333" d="M255.88,-188C255.88,-188 186.62,-188 186.62,-188 180.62,-188 174.62,-182 174.62,-176 174.62,-176 174.62,-164 174.62,-164 174.62,-158 180.62,-152 186.62,-152 186.62,-152 255.88,-152 255.88,-152 261.88,-152 267.88,-158 267.88,-164 267.88,-164 267.88,-176 267.88,-176 267.88,-182 261.88,-188 255.88,-188"/>
<text xml:space="preserve" text-anchor="start" x="182.62" y="-171" font-family="Helvetica,sans-Serif" font-weight="bold" font-size="10.00">2. Routing agent</text>
<text xml:space="preserve" text-anchor="start" x="188.62" y="-161.95" font-family="Helvetica,sans-Serif" font-size="9.00">register_task(...)</text>
</g>
<!-- s1&#45;&gt;s2 -->
<g id="edge1" class="edge">
<title>s1&#45;&gt;s2</title>
<path fill="none" stroke="#c44a00" stroke-width="2" d="M105.28,-170C122.19,-170 142.47,-170 161.26,-170"/>
<polygon fill="#c44a00" stroke="#c44a00" stroke-width="2" points="161.25,-173.5 171.25,-170 161.25,-166.5 161.25,-173.5"/>
</g>
<!-- s3 -->
<g id="node3" class="node">
<title>s3</title>
<path fill="#f4f4f2" stroke="#333333" d="M447.5,-191C447.5,-191 338.5,-191 338.5,-191 332.5,-191 326.5,-185 326.5,-179 326.5,-179 326.5,-161 326.5,-161 326.5,-155 332.5,-149 338.5,-149 338.5,-149 447.5,-149 447.5,-149 453.5,-149 459.5,-155 459.5,-161 459.5,-161 459.5,-179 459.5,-179 459.5,-185 453.5,-191 447.5,-191"/>
<text xml:space="preserve" text-anchor="start" x="347.62" y="-178.5" font-family="Helvetica,sans-Serif" font-weight="bold" font-size="10.00">3. Registry INSERT</text>
<text xml:space="preserve" text-anchor="start" x="345.75" y="-170.4" font-family="monospace" font-size="8.00">trigger: {kind: cron,</text>
<text xml:space="preserve" text-anchor="start" x="348" y="-162.4" font-family="monospace" font-size="8.00"> &#160;cron: &quot;0 9 * * 1&quot;}</text>
<text xml:space="preserve" text-anchor="start" x="334.5" y="-154.4" font-family="monospace" font-size="8.00">target_agent: digest_agent</text>
</g>
<!-- s2&#45;&gt;s3 -->
<g id="edge2" class="edge">
<title>s2&#45;&gt;s3</title>
<path fill="none" stroke="#c44a00" stroke-width="2" d="M268.19,-170C282.15,-170 297.9,-170 313.38,-170"/>
<polygon fill="#c44a00" stroke="#c44a00" stroke-width="2" points="313.24,-173.5 323.24,-170 313.24,-166.5 313.24,-173.5"/>
</g>
<!-- s4 -->
<g id="node4" class="node">
<title>s4</title>
<path fill="#ffffe0" stroke="#333333" d="M615.5,-188C615.5,-188 512.5,-188 512.5,-188 506.5,-188 500.5,-182 500.5,-176 500.5,-176 500.5,-164 500.5,-164 500.5,-158 506.5,-152 512.5,-152 512.5,-152 615.5,-152 615.5,-152 621.5,-152 627.5,-158 627.5,-164 627.5,-164 627.5,-176 627.5,-176 627.5,-182 621.5,-188 615.5,-188"/>
<text xml:space="preserve" text-anchor="start" x="517.5" y="-175.5" font-family="Helvetica,sans-Serif" font-weight="bold" font-size="10.00">4. Subscription mgr</text>
<text xml:space="preserve" text-anchor="start" x="519.38" y="-166.45" font-family="Helvetica,sans-Serif" font-size="9.00">scheduler.add_job(...)</text>
<text xml:space="preserve" text-anchor="start" x="508.5" y="-157.45" font-family="Helvetica,sans-Serif" font-size="9.00">register digest_agent inbox</text>
</g>
<!-- s3&#45;&gt;s4 -->
<g id="edge3" class="edge">
<title>s3&#45;&gt;s4</title>
<path fill="none" stroke="#c44a00" stroke-width="2" d="M459.82,-170C468.83,-170 478.14,-170 487.3,-170"/>
<polygon fill="#c44a00" stroke="#c44a00" stroke-width="2" points="487.1,-173.5 497.1,-170 487.1,-166.5 487.1,-173.5"/>
</g>
<!-- r3 -->
<g id="node7" class="node">
<title>r3</title>
<path fill="#ffd6d6" stroke="#333333" d="M442.62,-55C442.62,-55 343.38,-55 343.38,-55 337.38,-55 331.38,-49 331.38,-43 331.38,-43 331.38,-31 331.38,-31 331.38,-25 337.38,-19 343.38,-19 343.38,-19 442.62,-19 442.62,-19 448.62,-19 454.62,-25 454.62,-31 454.62,-31 454.62,-43 454.62,-43 454.62,-49 448.62,-55 442.62,-55"/>
<text xml:space="preserve" text-anchor="start" x="362.25" y="-38" font-family="Helvetica,sans-Serif" font-weight="bold" font-size="10.00">7. Dispatcher</text>
<text xml:space="preserve" text-anchor="start" x="339.38" y="-28.95" font-family="Helvetica,sans-Serif" font-size="9.00">→ inboxes[“digest_agent”]</text>
</g>
<!-- s3&#45;&gt;r3 -->
<g id="edge13" class="edge">
<title>s3&#45;&gt;r3</title>
<path fill="none" stroke="#888888" stroke-dasharray="1,5" d="M393,-148.59C393,-126.42 393,-91.63 393,-66.79"/>
<polygon fill="#888888" stroke="#888888" points="396.5,-67.01 393,-57.01 389.5,-67.01 396.5,-67.01"/>
<text xml:space="preserve" text-anchor="middle" x="380.25" y="-103.2" font-family="Helvetica,sans-Serif" font-size="9.00">dispatcher reads</text>
<text xml:space="preserve" text-anchor="middle" x="380.25" y="-93.45" font-family="Helvetica,sans-Serif" font-size="9.00">target_agent</text>
</g>
<!-- a1 -->
<g id="node10" class="node">
<title>a1</title>
<path fill="#ffffff" stroke="#333333" d="M974.25,-56C974.25,-56 904.25,-56 904.25,-56 898.25,-56 892.25,-50 892.25,-44 892.25,-44 892.25,-32 892.25,-32 892.25,-26 898.25,-20 904.25,-20 904.25,-20 974.25,-20 974.25,-20 980.25,-20 986.25,-26 986.25,-32 986.25,-32 986.25,-44 986.25,-44 986.25,-50 980.25,-56 974.25,-56"/>
<text xml:space="preserve" text-anchor="start" x="901.38" y="-43.5" font-family="Helvetica,sans-Serif" font-weight="bold" font-size="10.00">10. digest_agent</text>
<text xml:space="preserve" text-anchor="start" x="900.25" y="-34.45" font-family="Helvetica,sans-Serif" font-size="9.00">load prompt + tools</text>
<text xml:space="preserve" text-anchor="start" x="914.12" y="-25.45" font-family="Helvetica,sans-Serif" font-size="9.00">from registry</text>
</g>
<!-- s3&#45;&gt;a1 -->
<g id="edge14" class="edge">
<title>s3&#45;&gt;a1</title>
<path fill="none" stroke="#888888" stroke-dasharray="1,5" d="M459.85,-150.56C473.22,-147.03 487.25,-143.65 500.5,-141 646.73,-111.79 691.88,-145.45 833.25,-98 858.11,-89.66 883.71,-75.17 903.4,-62.53"/>
<polygon fill="#888888" stroke="#888888" points="905.15,-65.56 911.58,-57.14 901.31,-59.71 905.15,-65.56"/>
<text xml:space="preserve" text-anchor="middle" x="674.12" y="-137.69" font-family="Helvetica,sans-Serif" font-size="9.00">agent loads</text>
<text xml:space="preserve" text-anchor="middle" x="674.12" y="-127.94" font-family="Helvetica,sans-Serif" font-size="9.00">prompt+tools</text>
</g>
<!-- r1 -->
<g id="node5" class="node">
<title>r1</title>
<path fill="#e0ebff" stroke="#333333" d="M104,-55C104,-55 28,-55 28,-55 22,-55 16,-49 16,-43 16,-43 16,-31 16,-31 16,-25 22,-19 28,-19 28,-19 104,-19 104,-19 110,-19 116,-25 116,-31 116,-31 116,-43 116,-43 116,-49 110,-55 104,-55"/>
<text xml:space="preserve" text-anchor="start" x="30.38" y="-42.5" font-family="Helvetica,sans-Serif" font-weight="bold" font-size="10.00">5. APScheduler</text>
<text xml:space="preserve" text-anchor="start" x="24" y="-33.45" font-family="Helvetica,sans-Serif" font-size="9.00">wall clock → 9:00:00</text>
<text xml:space="preserve" text-anchor="start" x="46.12" y="-24.45" font-family="Helvetica,sans-Serif" font-style="italic" font-size="9.00">timer fires</text>
</g>
<!-- r2 -->
<g id="node6" class="node">
<title>r2</title>
<polygon fill="#ffffff" stroke="#333333" points="279.5,-58 157,-58 157,-16 285.5,-16 285.5,-52 279.5,-58"/>
<polyline fill="none" stroke="#333333" points="279.5,-58 279.5,-52"/>
<polyline fill="none" stroke="#333333" points="285.5,-52 279.5,-52"/>
<text xml:space="preserve" text-anchor="start" x="188.25" y="-45.5" font-family="Helvetica,sans-Serif" font-weight="bold" font-size="10.00">6. Build Event</text>
<text xml:space="preserve" text-anchor="start" x="176.25" y="-37.4" font-family="monospace" font-size="8.00">target: digest_agent</text>
<text xml:space="preserve" text-anchor="start" x="165" y="-29.4" font-family="monospace" font-size="8.00">thread: &quot;cron&#45;2026&#45;05&#45;29&quot;</text>
<text xml:space="preserve" text-anchor="start" x="176.25" y="-21.4" font-family="monospace" font-size="8.00">payload: {fire_time}</text>
</g>
<!-- r1&#45;&gt;r2 -->
<g id="edge4" class="edge">
<title>r1&#45;&gt;r2</title>
<path fill="none" stroke="#0f3d6e" d="M116.33,-37C125.58,-37 135.43,-37 145.25,-37"/>
<polygon fill="#0f3d6e" stroke="#0f3d6e" points="145.21,-40.5 155.21,-37 145.21,-33.5 145.21,-40.5"/>
</g>
<!-- r2&#45;&gt;r3 -->
<g id="edge5" class="edge">
<title>r2&#45;&gt;r3</title>
<path fill="none" stroke="#d62828" stroke-width="2" d="M285.94,-37C296.44,-37 307.4,-37 318.13,-37"/>
<polygon fill="#d62828" stroke="#d62828" stroke-width="2" points="318.02,-40.5 328.02,-37 318.02,-33.5 318.02,-40.5"/>
</g>
<!-- r4 -->
<g id="node8" class="node">
<title>r4</title>
<path fill="#ffe8e8" stroke="#333333" d="M616.62,-51.73C616.62,-53.53 593.04,-55 564,-55 534.96,-55 511.38,-53.53 511.38,-51.73 511.38,-51.73 511.38,-22.27 511.38,-22.27 511.38,-20.47 534.96,-19 564,-19 593.04,-19 616.62,-20.47 616.62,-22.27 616.62,-22.27 616.62,-51.73 616.62,-51.73"/>
<path fill="none" stroke="#333333" d="M616.62,-51.73C616.62,-49.92 593.04,-48.45 564,-48.45 534.96,-48.45 511.38,-49.92 511.38,-51.73"/>
<text xml:space="preserve" text-anchor="start" x="519.38" y="-34.12" font-family="Helvetica,sans-Serif" font-weight="bold" font-size="10.00">8. Inbox</text>
<text xml:space="preserve" text-anchor="start" x="556.88" y="-34.12" font-family="Helvetica,sans-Serif" font-size="10.00"> &#160;</text>
<text xml:space="preserve" text-anchor="start" x="562.88" y="-34.12" font-family="Helvetica,sans-Serif" font-size="8.00">digest_agent</text>
</g>
<!-- r3&#45;&gt;r4 -->
<g id="edge6" class="edge">
<title>r3&#45;&gt;r4</title>
<path fill="none" stroke="#d62828" stroke-width="2" d="M455.01,-37C469.06,-37 484.04,-37 498.24,-37"/>
<polygon fill="#d62828" stroke="#d62828" stroke-width="2" points="497.97,-40.5 507.97,-37 497.97,-33.5 497.97,-40.5"/>
</g>
<!-- r5 -->
<g id="node9" class="node">
<title>r5</title>
<path fill="#ffe9d4" stroke="#333333" d="M813.25,-56C813.25,-56 732.75,-56 732.75,-56 726.75,-56 720.75,-50 720.75,-44 720.75,-44 720.75,-32 720.75,-32 720.75,-26 726.75,-20 732.75,-20 732.75,-20 813.25,-20 813.25,-20 819.25,-20 825.25,-26 825.25,-32 825.25,-32 825.25,-44 825.25,-44 825.25,-50 819.25,-56 813.25,-56"/>
<text xml:space="preserve" text-anchor="start" x="750.12" y="-43.5" font-family="Helvetica,sans-Serif" font-weight="bold" font-size="10.00">9. Invoker</text>
<text xml:space="preserve" text-anchor="start" x="728.75" y="-34.45" font-family="Helvetica,sans-Serif" font-size="9.00">dequeue, lock thread,</text>
<text xml:space="preserve" text-anchor="start" x="754.62" y="-25.45" font-family="Helvetica,sans-Serif" font-size="9.00">invoke fn</text>
</g>
<!-- r4&#45;&gt;r5 -->
<g id="edge7" class="edge">
<title>r4&#45;&gt;r5</title>
<path fill="none" stroke="#c44a00" stroke-width="2" d="M616.97,-37.25C644.39,-37.38 678.28,-37.55 707.38,-37.69"/>
<polygon fill="#c44a00" stroke="#c44a00" stroke-width="2" points="707.33,-41.19 717.34,-37.74 707.36,-34.19 707.33,-41.19"/>
<text xml:space="preserve" text-anchor="middle" x="674.12" y="-38.85" font-family="Helvetica,sans-Serif" font-size="9.00">dequeue</text>
</g>
<!-- r5&#45;&gt;a1 -->
<g id="edge10" class="edge">
<title>r5&#45;&gt;a1</title>
<path fill="none" stroke="#7a2e00" stroke-width="2" d="M825.52,-38C842.46,-38 861.43,-38 878.91,-38"/>
<polygon fill="#7a2e00" stroke="#7a2e00" stroke-width="2" points="878.9,-41.5 888.9,-38 878.9,-34.5 878.9,-41.5"/>
<text xml:space="preserve" text-anchor="middle" x="858.75" y="-39.2" font-family="Helvetica,sans-Serif" font-size="9.00">invoke</text>
</g>
<!-- a2 -->
<g id="node11" class="node">
<title>a2</title>
<path fill="#eaf3ff" stroke="#333333" d="M1128,-56C1128,-56 1039.25,-56 1039.25,-56 1033.25,-56 1027.25,-50 1027.25,-44 1027.25,-44 1027.25,-32 1027.25,-32 1027.25,-26 1033.25,-20 1039.25,-20 1039.25,-20 1128,-20 1128,-20 1134,-20 1140,-26 1140,-32 1140,-32 1140,-44 1140,-44 1140,-50 1134,-56 1128,-56"/>
<text xml:space="preserve" text-anchor="start" x="1037.88" y="-43.5" font-family="Helvetica,sans-Serif" font-weight="bold" font-size="10.00">11. gmail.list / fetch</text>
<text xml:space="preserve" text-anchor="start" x="1047.62" y="-34.45" font-family="Helvetica,sans-Serif" font-size="9.00">via Gmail adapter</text>
<text xml:space="preserve" text-anchor="start" x="1035.25" y="-25.45" font-family="Helvetica,sans-Serif" font-style="italic" font-size="9.00">(outbound face — read)</text>
</g>
<!-- a1&#45;&gt;a2 -->
<g id="edge8" class="edge">
<title>a1&#45;&gt;a2</title>
<path fill="none" stroke="#7a2e00" stroke-width="2" d="M986.48,-38C995.35,-38 1004.82,-38 1014.22,-38"/>
<polygon fill="#7a2e00" stroke="#7a2e00" stroke-width="2" points="1013.92,-41.5 1023.92,-38 1013.92,-34.5 1013.92,-41.5"/>
</g>
<!-- a3 -->
<g id="node12" class="node">
<title>a3</title>
<path fill="#ffffff" stroke="#333333" d="M1302.75,-56C1302.75,-56 1193,-56 1193,-56 1187,-56 1181,-50 1181,-44 1181,-44 1181,-32 1181,-32 1181,-26 1187,-20 1193,-20 1193,-20 1302.75,-20 1302.75,-20 1308.75,-20 1314.75,-26 1314.75,-32 1314.75,-32 1314.75,-44 1314.75,-44 1314.75,-50 1308.75,-56 1302.75,-56"/>
<text xml:space="preserve" text-anchor="start" x="1189" y="-39" font-family="Helvetica,sans-Serif" font-weight="bold" font-size="10.00">12. LLM rank+summarize</text>
<text xml:space="preserve" text-anchor="start" x="1193.88" y="-29.95" font-family="Helvetica,sans-Serif" font-size="9.00">pick top 5, compose digest</text>
</g>
<!-- a2&#45;&gt;a3 -->
<g id="edge9" class="edge">
<title>a2&#45;&gt;a3</title>
<path fill="none" stroke="#7a2e00" stroke-width="2" d="M1140.46,-38C1149.25,-38 1158.47,-38 1167.66,-38"/>
<polygon fill="#7a2e00" stroke="#7a2e00" stroke-width="2" points="1167.56,-41.5 1177.56,-38 1167.56,-34.5 1167.56,-41.5"/>
</g>
<!-- o1 -->
<g id="node13" class="node">
<title>o1</title>
<path fill="#ffffff" stroke="#333333" d="M1483.62,-56C1483.62,-56 1415.12,-56 1415.12,-56 1409.12,-56 1403.12,-50 1403.12,-44 1403.12,-44 1403.12,-32 1403.12,-32 1403.12,-26 1409.12,-20 1415.12,-20 1415.12,-20 1483.62,-20 1483.62,-20 1489.62,-20 1495.62,-26 1495.62,-32 1495.62,-32 1495.62,-44 1495.62,-44 1495.62,-50 1489.62,-56 1483.62,-56"/>
<text xml:space="preserve" text-anchor="start" x="1415.25" y="-43.5" font-family="Helvetica,sans-Serif" font-weight="bold" font-size="10.00">13. gmail.send</text>
<text xml:space="preserve" text-anchor="start" x="1411.12" y="-34.45" font-family="Helvetica,sans-Serif" font-size="9.00">outbound channel:</text>
<text xml:space="preserve" text-anchor="start" x="1414.12" y="-25.45" font-family="Helvetica,sans-Serif" font-size="9.00">outlook://anu@…</text>
</g>
<!-- a3&#45;&gt;o1 -->
<g id="edge12" class="edge">
<title>a3&#45;&gt;o1</title>
<path fill="none" stroke="#0f3d6e" stroke-width="2" d="M1315.03,-38C1339.22,-38 1366.41,-38 1389.88,-38"/>
<polygon fill="#0f3d6e" stroke="#0f3d6e" stroke-width="2" points="1389.84,-41.5 1399.84,-38 1389.84,-34.5 1389.84,-41.5"/>
</g>
<!-- o2 -->
<g id="node14" class="node">
<title>o2</title>
<path fill="#ffe9d4" stroke="#333333" d="M1638.88,-56C1638.88,-56 1548.62,-56 1548.62,-56 1542.62,-56 1536.62,-50 1536.62,-44 1536.62,-44 1536.62,-32 1536.62,-32 1536.62,-26 1542.62,-20 1548.62,-20 1548.62,-20 1638.88,-20 1638.88,-20 1644.88,-20 1650.88,-26 1650.88,-32 1650.88,-32 1650.88,-44 1650.88,-44 1650.88,-50 1644.88,-56 1638.88,-56"/>
<text xml:space="preserve" text-anchor="start" x="1544.62" y="-39" font-family="Helvetica,sans-Serif" font-weight="bold" font-size="10.00">14. Return → Invoker</text>
<text xml:space="preserve" text-anchor="start" x="1546.12" y="-29.95" font-family="Helvetica,sans-Serif" font-size="9.00">release lock, await next</text>
</g>
<!-- o1&#45;&gt;o2 -->
<g id="edge11" class="edge">
<title>o1&#45;&gt;o2</title>
<path fill="none" stroke="#0f3d6e" stroke-width="2" d="M1495.81,-38C1504.65,-38 1514.11,-38 1523.51,-38"/>
<polygon fill="#0f3d6e" stroke="#0f3d6e" stroke-width="2" points="1523.22,-41.5 1533.22,-38 1523.22,-34.5 1523.22,-41.5"/>
</g>
</g>
</svg>
