<svg aria-roledescription="flowchart-v2" role="graphics-document document" viewBox="0 0 2242.953125 1009" style="max-width: 2242.95px; background-color: white;" class="flowchart" xmlns:xlink="http://www.w3.org/1999/xlink" xmlns="http://www.w3.org/2000/svg" width="100%" id="my-svg"><style>#my-svg{font-family:"trebuchet ms",verdana,arial,sans-serif;font-size:16px;fill:#333;}@keyframes edge-animation-frame{from{stroke-dashoffset:0;}}@keyframes dash{to{stroke-dashoffset:0;}}#my-svg .edge-animation-slow{stroke-dasharray:9,5!important;stroke-dashoffset:900;animation:dash 50s linear infinite;stroke-linecap:round;}#my-svg .edge-animation-fast{stroke-dasharray:9,5!important;stroke-dashoffset:900;animation:dash 20s linear infinite;stroke-linecap:round;}#my-svg .error-icon{fill:#552222;}#my-svg .error-text{fill:#552222;stroke:#552222;}#my-svg .edge-thickness-normal{stroke-width:1px;}#my-svg .edge-thickness-thick{stroke-width:3.5px;}#my-svg .edge-pattern-solid{stroke-dasharray:0;}#my-svg .edge-thickness-invisible{stroke-width:0;fill:none;}#my-svg .edge-pattern-dashed{stroke-dasharray:3;}#my-svg .edge-pattern-dotted{stroke-dasharray:2;}#my-svg .marker{fill:#333333;stroke:#333333;}#my-svg .marker.cross{stroke:#333333;}#my-svg svg{font-family:"trebuchet ms",verdana,arial,sans-serif;font-size:16px;}#my-svg p{margin:0;}#my-svg .label{font-family:"trebuchet ms",verdana,arial,sans-serif;color:#333;}#my-svg .cluster-label text{fill:#333;}#my-svg .cluster-label span{color:#333;}#my-svg .cluster-label span p{background-color:transparent;}#my-svg .label text,#my-svg span{fill:#333;color:#333;}#my-svg .node rect,#my-svg .node circle,#my-svg .node ellipse,#my-svg .node polygon,#my-svg .node path{fill:#ECECFF;stroke:#9370DB;stroke-width:1px;}#my-svg .rough-node .label text,#my-svg .node .label text,#my-svg .image-shape .label,#my-svg .icon-shape .label{text-anchor:middle;}#my-svg .node .katex path{fill:#000;stroke:#000;stroke-width:1px;}#my-svg .rough-node .label,#my-svg .node .label,#my-svg .image-shape .label,#my-svg .icon-shape .label{text-align:center;}#my-svg .node.clickable{cursor:pointer;}#my-svg .root .anchor path{fill:#333333!important;stroke-width:0;stroke:#333333;}#my-svg .arrowheadPath{fill:#333333;}#my-svg .edgePath .path{stroke:#333333;stroke-width:2.0px;}#my-svg .flowchart-link{stroke:#333333;fill:none;}#my-svg .edgeLabel{background-color:rgba(232,232,232, 0.8);text-align:center;}#my-svg .edgeLabel p{background-color:rgba(232,232,232, 0.8);}#my-svg .edgeLabel rect{opacity:0.5;background-color:rgba(232,232,232, 0.8);fill:rgba(232,232,232, 0.8);}#my-svg .labelBkg{background-color:rgba(232, 232, 232, 0.5);}#my-svg .cluster rect{fill:#ffffde;stroke:#aaaa33;stroke-width:1px;}#my-svg .cluster text{fill:#333;}#my-svg .cluster span{color:#333;}#my-svg div.mermaidTooltip{position:absolute;text-align:center;max-width:200px;padding:2px;font-family:"trebuchet ms",verdana,arial,sans-serif;font-size:12px;background:hsl(80, 100%, 96.2745098039%);border:1px solid #aaaa33;border-radius:2px;pointer-events:none;z-index:100;}#my-svg .flowchartTitleText{text-anchor:middle;font-size:18px;fill:#333;}#my-svg rect.text{fill:none;stroke-width:0;}#my-svg .icon-shape,#my-svg .image-shape{background-color:rgba(232,232,232, 0.8);text-align:center;}#my-svg .icon-shape p,#my-svg .image-shape p{background-color:rgba(232,232,232, 0.8);padding:2px;}#my-svg .icon-shape rect,#my-svg .image-shape rect{opacity:0.5;background-color:rgba(232,232,232, 0.8);fill:rgba(232,232,232, 0.8);}#my-svg :root{--mermaid-font-family:"trebuchet ms",verdana,arial,sans-serif;}#my-svg .apcls&gt;*{fill:#e8f0fe!important;stroke:#4285f4!important;color:#111!important;}#my-svg .apcls span{fill:#e8f0fe!important;stroke:#4285f4!important;color:#111!important;}#my-svg .apcls tspan{fill:#111!important;}#my-svg .cugacls&gt;*{fill:#e6f4ea!important;stroke:#34a853!important;color:#111!important;}#my-svg .cugacls span{fill:#e6f4ea!important;stroke:#34a853!important;color:#111!important;}#my-svg .cugacls tspan{fill:#111!important;}#my-svg .dircls&gt;*{fill:#e0f7fa!important;stroke:#00acc1!important;color:#111!important;}#my-svg .dircls span{fill:#e0f7fa!important;stroke:#00acc1!important;color:#111!important;}#my-svg .dircls tspan{fill:#111!important;}</style><g><marker orient="auto" markerHeight="8" markerWidth="8" markerUnits="userSpaceOnUse" refY="5" refX="5" viewBox="0 0 10 10" class="marker flowchart-v2" id="my-svg_flowchart-v2-pointEnd"><path style="stroke-width: 1; stroke-dasharray: 1, 0;" class="arrowMarkerPath" d="M 0 0 L 10 5 L 0 10 z"/></marker><marker orient="auto" markerHeight="8" markerWidth="8" markerUnits="userSpaceOnUse" refY="5" refX="4.5" viewBox="0 0 10 10" class="marker flowchart-v2" id="my-svg_flowchart-v2-pointStart"><path style="stroke-width: 1; stroke-dasharray: 1, 0;" class="arrowMarkerPath" d="M 0 5 L 10 10 L 10 0 z"/></marker><marker orient="auto" markerHeight="11" markerWidth="11" markerUnits="userSpaceOnUse" refY="5" refX="11" viewBox="0 0 10 10" class="marker flowchart-v2" id="my-svg_flowchart-v2-circleEnd"><circle style="stroke-width: 1; stroke-dasharray: 1, 0;" class="arrowMarkerPath" r="5" cy="5" cx="5"/></marker><marker orient="auto" markerHeight="11" markerWidth="11" markerUnits="userSpaceOnUse" refY="5" refX="-1" viewBox="0 0 10 10" class="marker flowchart-v2" id="my-svg_flowchart-v2-circleStart"><circle style="stroke-width: 1; stroke-dasharray: 1, 0;" class="arrowMarkerPath" r="5" cy="5" cx="5"/></marker><marker orient="auto" markerHeight="11" markerWidth="11" markerUnits="userSpaceOnUse" refY="5.2" refX="12" viewBox="0 0 11 11" class="marker cross flowchart-v2" id="my-svg_flowchart-v2-crossEnd"><path style="stroke-width: 2; stroke-dasharray: 1, 0;" class="arrowMarkerPath" d="M 1,1 l 9,9 M 10,1 l -9,9"/></marker><marker orient="auto" markerHeight="11" markerWidth="11" markerUnits="userSpaceOnUse" refY="5.2" refX="-1" viewBox="0 0 11 11" class="marker cross flowchart-v2" id="my-svg_flowchart-v2-crossStart"><path style="stroke-width: 2; stroke-dasharray: 1, 0;" class="arrowMarkerPath" d="M 1,1 l 9,9 M 10,1 l -9,9"/></marker><g class="root"><g class="clusters"><g data-look="classic" id="cuga" class="cluster cugacls"><rect height="587" width="1666.984375" y="393" x="567.96875" style="fill:#e6f4ea !important;stroke:#34a853 !important"/><g transform="translate(1301.4609375, 393)" class="cluster-label"><foreignObject height="48" width="200"><div style="display: table; white-space: break-spaces; line-height: 1.5; max-width: 200px; text-align: center; width: 200px;" xmlns="http://www.w3.org/1999/xhtml"><span style="color:#111 !important" class="nodeLabel"><p>CUGA FastAPI server  — behind EVENTS_ENABLED</p></span></div></foreignObject></g></g><g data-look="classic" id="ap" class="cluster apcls"><rect height="252" width="1953.1875" y="8" x="281.765625" style="fill:#e8f0fe !important;stroke:#4285f4 !important"/><g transform="translate(1158.359375, 8)" class="cluster-label"><foreignObject height="72" width="200"><div style="display: table; white-space: break-spaces; line-height: 1.5; max-width: 200px; text-align: center; width: 200px;" xmlns="http://www.w3.org/1999/xhtml"><span style="color:#111 !important" class="nodeLabel"><p>Activepieces  — the event engine for integrations + the clock</p></span></div></foreignObject></g></g><g data-look="classic" id="users" class="cluster"><rect height="865" width="223.765625" y="136" x="8" style=""/><g transform="translate(61.75, 136)" class="cluster-label"><foreignObject height="24" width="116.265625"><div style="display: table-cell; white-space: nowrap; line-height: 1.5; max-width: 200px; text-align: center;" xmlns="http://www.w3.org/1999/xhtml"><span class="nodeLabel"><p>People and apps</p></span></div></foreignObject></g></g></g><g class="edgePaths"><path marker-end="url(#my-svg_flowchart-v2-pointEnd)" style="" class="edge-thickness-normal edge-pattern-solid edge-thickness-normal edge-pattern-solid flowchart-link" id="L_web_invoke_0" d="M183.273,731L191.355,731C199.438,731,215.602,731,227.85,731C240.099,731,248.432,731,256.766,731C265.099,731,273.432,731,299.366,731C325.299,731,368.833,731,412.367,731C455.901,731,499.435,731,525.368,731C551.302,731,559.635,731,581.923,709.84C604.21,688.679,640.452,646.359,658.572,625.199L676.693,604.038"/><path marker-end="url(#my-svg_flowchart-v2-pointEnd)" marker-start="url(#my-svg_flowchart-v2-pointStart)" style="" class="edge-thickness-normal edge-pattern-solid edge-thickness-normal edge-pattern-solid flowchart-link" id="L_sl_direct_0" d="M172.289,939L182.202,939C192.115,939,211.94,939,226.02,939C240.099,939,248.432,939,256.766,939C265.099,939,273.432,939,299.366,939C325.299,939,368.833,939,412.367,939C455.901,939,499.435,939,525.368,939C551.302,939,559.635,939,589.635,939C619.635,939,671.302,939,722.969,939C774.635,939,826.302,939,877.969,939C929.635,939,981.302,939,1032.969,939C1084.635,939,1136.302,939,1184.318,939C1232.333,939,1276.698,939,1327.464,939C1378.229,939,1435.396,939,1496.214,939C1557.031,939,1621.5,939,1686.566,939C1751.633,939,1817.297,939,1865.101,931.628C1912.904,924.256,1942.848,909.511,1957.82,902.139L1972.791,894.767"/><path marker-end="url(#my-svg_flowchart-v2-pointEnd)" marker-start="url(#my-svg_flowchart-v2-pointStart)" style="" class="edge-thickness-normal edge-pattern-solid edge-thickness-normal edge-pattern-solid flowchart-link" id="L_dc_direct_0" d="M180.133,835L188.738,835C197.344,835,214.555,835,227.327,835C240.099,835,248.432,835,256.766,835C265.099,835,273.432,835,299.366,835C325.299,835,368.833,835,412.367,835C455.901,835,499.435,835,525.368,835C551.302,835,559.635,835,589.635,835C619.635,835,671.302,835,722.969,835C774.635,835,826.302,835,877.969,835C929.635,835,981.302,835,1032.969,835C1084.635,835,1136.302,835,1184.318,835C1232.333,835,1276.698,835,1327.464,835C1378.229,835,1435.396,835,1496.214,835C1557.031,835,1621.5,835,1686.566,835C1751.633,835,1817.297,835,1860.628,835.373C1903.959,835.746,1924.957,836.492,1935.457,836.865L1945.956,837.238"/><path marker-end="url(#my-svg_flowchart-v2-pointEnd)" marker-start="url(#my-svg_flowchart-v2-pointStart)" style="" class="edge-thickness-normal edge-pattern-solid edge-thickness-normal edge-pattern-solid flowchart-link" id="L_tg_tgp_0" d="M186.586,198L194.116,198C201.646,198,216.706,198,228.402,198C240.099,198,248.432,198,256.766,198C265.099,198,273.432,198,284.609,198C295.786,198,309.807,198,316.818,198L323.828,198"/><path marker-end="url(#my-svg_flowchart-v2-pointEnd)" style="" class="edge-thickness-normal edge-pattern-solid edge-thickness-normal edge-pattern-solid flowchart-link" id="L_tgp_invoke_0" d="M496.906,198L504.583,198C512.26,198,527.615,198,539.458,198C551.302,198,559.635,198,585.624,247.557C611.612,297.113,655.256,396.226,677.078,445.783L698.899,495.339"/><path marker-end="url(#my-svg_flowchart-v2-pointEnd)" style="" class="edge-thickness-normal edge-pattern-solid edge-thickness-normal edge-pattern-solid flowchart-link" id="L_hook_invoke_0" d="M206.766,505L210.932,505C215.099,505,223.432,505,231.766,505C240.099,505,248.432,505,256.766,505C265.099,505,273.432,505,299.366,505C325.299,505,368.833,505,412.367,505C455.901,505,499.435,505,525.368,505C551.302,505,559.635,505,567.329,506.024C575.022,507.048,582.074,509.095,585.601,510.119L589.127,511.143"/><path marker-end="url(#my-svg_flowchart-v2-pointEnd)" style="" class="edge-thickness-normal edge-pattern-solid edge-thickness-normal edge-pattern-solid flowchart-link" id="L_api_invoke_0" d="M2046.352,185L2019.121,226.333C1991.889,267.667,1937.425,350.333,1877.361,391.667C1817.297,433,1751.633,433,1686.566,433C1621.5,433,1557.031,433,1496.214,433C1435.396,433,1378.229,433,1327.464,433C1276.698,433,1232.333,433,1184.318,433C1136.302,433,1084.635,433,1032.969,433C981.302,433,929.635,433,889.762,443.598C849.888,454.197,821.807,475.393,807.766,485.992L793.725,496.59"/><path marker-end="url(#my-svg_flowchart-v2-pointEnd)" style="" class="edge-thickness-normal edge-pattern-solid edge-thickness-normal edge-pattern-solid flowchart-link" id="L_clk_invoke_0" d="M517.969,82L522.135,82C526.302,82,534.635,82,542.969,82C551.302,82,559.635,82,586.611,150.867C613.586,219.734,659.203,357.469,682.012,426.336L704.82,495.203"/><path marker-end="url(#my-svg_flowchart-v2-pointEnd)" style="" class="edge-thickness-normal edge-pattern-solid edge-thickness-normal edge-pattern-solid flowchart-link" id="L_direct_invoke_0" d="M1958.91,791L1946.252,785.667C1933.593,780.333,1908.277,769.667,1862.787,764.333C1817.297,759,1751.633,759,1686.566,759C1621.5,759,1557.031,759,1496.214,759C1435.396,759,1378.229,759,1327.464,759C1276.698,759,1232.333,759,1184.318,759C1136.302,759,1084.635,759,1032.969,759C981.302,759,929.635,759,884.67,733.202C839.704,707.404,801.439,655.809,782.307,630.011L763.174,604.213"/><path marker-end="url(#my-svg_flowchart-v2-pointEnd)" style="" class="edge-thickness-normal edge-pattern-solid edge-thickness-normal edge-pattern-solid flowchart-link" id="L_invoke_concierge_0" d="M852.969,548.323L857.135,548.269C861.302,548.215,869.635,548.108,877.302,548.054C884.969,548,891.969,548,895.469,548L898.969,548"/><path marker-end="url(#my-svg_flowchart-v2-pointEnd)" style="" class="edge-thickness-normal edge-pattern-solid edge-thickness-normal edge-pattern-solid flowchart-link" id="L_concierge_runtime_0" d="M1162.969,518.645L1167.135,517.704C1171.302,516.763,1179.635,514.882,1187.302,513.941C1194.969,513,1201.969,513,1205.469,513L1208.969,513"/><path marker-end="url(#my-svg_flowchart-v2-pointEnd)" marker-start="url(#my-svg_flowchart-v2-pointStart)" style="" class="edge-thickness-normal edge-pattern-solid edge-thickness-normal edge-pattern-solid flowchart-link" id="L_runtime_mcp_0" d="M1391.403,471.985L1408.263,462.154C1425.123,452.323,1458.843,432.662,1495.672,414.017C1532.501,395.372,1572.44,377.743,1592.409,368.929L1612.378,360.115"/><path marker-end="url(#my-svg_flowchart-v2-pointEnd)" style="" class="edge-thickness-normal edge-pattern-solid edge-thickness-normal edge-pattern-solid flowchart-link" id="L_runtime_deliver_0" d="M1362.866,552L1384.482,572.167C1406.098,592.333,1449.33,632.667,1480.847,652.833C1512.365,673,1532.167,673,1542.068,673L1551.969,673"/><path marker-end="url(#my-svg_flowchart-v2-pointEnd)" style="" class="edge-thickness-normal edge-pattern-dotted edge-thickness-normal edge-pattern-solid flowchart-link" id="L_deliver_direct_0" d="M1771.109,724L1789.751,735.167C1808.393,746.333,1845.677,768.667,1874.839,782.557C1904.001,796.447,1925.041,801.894,1935.561,804.618L1946.081,807.341"/><path marker-end="url(#my-svg_flowchart-v2-pointEnd)" style="" class="edge-thickness-normal edge-pattern-dotted edge-thickness-normal edge-pattern-solid flowchart-link" id="L_concierge_ap_0" d="M1162.969,580.71L1167.135,581.758C1171.302,582.806,1179.635,584.903,1205.984,585.952C1232.333,587,1276.698,587,1327.464,587C1378.229,587,1435.396,587,1496.214,587C1557.031,587,1621.5,587,1686.566,587C1751.633,587,1817.297,587,1873.563,533.111C1929.829,479.223,1976.697,371.445,2000.131,317.557L2023.565,263.668"/><path marker-end="url(#my-svg_flowchart-v2-pointEnd)" style="" class="edge-thickness-normal edge-pattern-dotted edge-thickness-normal edge-pattern-solid flowchart-link" id="L_deliver_ap_0" d="M1748.76,622L1771.127,603.833C1793.494,585.667,1838.227,549.333,1882.204,489.592C1926.18,429.85,1969.399,346.699,1991.008,305.124L2012.618,263.549"/></g><g class="edgeLabels"><g class="edgeLabel"><g transform="translate(0, 0)" class="label"><foreignObject height="0" width="0"><div style="display: table-cell; white-space: nowrap; line-height: 1.5; max-width: 200px; text-align: center;" class="labelBkg" xmlns="http://www.w3.org/1999/xhtml"><span class="edgeLabel"></span></div></foreignObject></g></g><g class="edgeLabel"><g transform="translate(0, 0)" class="label"><foreignObject height="0" width="0"><div style="display: table-cell; white-space: nowrap; line-height: 1.5; max-width: 200px; text-align: center;" class="labelBkg" xmlns="http://www.w3.org/1999/xhtml"><span class="edgeLabel"></span></div></foreignObject></g></g><g class="edgeLabel"><g transform="translate(0, 0)" class="label"><foreignObject height="0" width="0"><div style="display: table-cell; white-space: nowrap; line-height: 1.5; max-width: 200px; text-align: center;" class="labelBkg" xmlns="http://www.w3.org/1999/xhtml"><span class="edgeLabel"></span></div></foreignObject></g></g><g class="edgeLabel"><g transform="translate(0, 0)" class="label"><foreignObject height="0" width="0"><div style="display: table-cell; white-space: nowrap; line-height: 1.5; max-width: 200px; text-align: center;" class="labelBkg" xmlns="http://www.w3.org/1999/xhtml"><span class="edgeLabel"></span></div></foreignObject></g></g><g class="edgeLabel"><g transform="translate(0, 0)" class="label"><foreignObject height="0" width="0"><div style="display: table-cell; white-space: nowrap; line-height: 1.5; max-width: 200px; text-align: center;" class="labelBkg" xmlns="http://www.w3.org/1999/xhtml"><span class="edgeLabel"></span></div></foreignObject></g></g><g class="edgeLabel"><g transform="translate(0, 0)" class="label"><foreignObject height="0" width="0"><div style="display: table-cell; white-space: nowrap; line-height: 1.5; max-width: 200px; text-align: center;" class="labelBkg" xmlns="http://www.w3.org/1999/xhtml"><span class="edgeLabel"></span></div></foreignObject></g></g><g class="edgeLabel"><g transform="translate(0, 0)" class="label"><foreignObject height="0" width="0"><div style="display: table-cell; white-space: nowrap; line-height: 1.5; max-width: 200px; text-align: center;" class="labelBkg" xmlns="http://www.w3.org/1999/xhtml"><span class="edgeLabel"></span></div></foreignObject></g></g><g class="edgeLabel"><g transform="translate(0, 0)" class="label"><foreignObject height="0" width="0"><div style="display: table-cell; white-space: nowrap; line-height: 1.5; max-width: 200px; text-align: center;" class="labelBkg" xmlns="http://www.w3.org/1999/xhtml"><span class="edgeLabel"></span></div></foreignObject></g></g><g class="edgeLabel"><g transform="translate(0, 0)" class="label"><foreignObject height="0" width="0"><div style="display: table-cell; white-space: nowrap; line-height: 1.5; max-width: 200px; text-align: center;" class="labelBkg" xmlns="http://www.w3.org/1999/xhtml"><span class="edgeLabel"></span></div></foreignObject></g></g><g class="edgeLabel"><g transform="translate(0, 0)" class="label"><foreignObject height="0" width="0"><div style="display: table-cell; white-space: nowrap; line-height: 1.5; max-width: 200px; text-align: center;" class="labelBkg" xmlns="http://www.w3.org/1999/xhtml"><span class="edgeLabel"></span></div></foreignObject></g></g><g class="edgeLabel"><g transform="translate(0, 0)" class="label"><foreignObject height="0" width="0"><div style="display: table-cell; white-space: nowrap; line-height: 1.5; max-width: 200px; text-align: center;" class="labelBkg" xmlns="http://www.w3.org/1999/xhtml"><span class="edgeLabel"></span></div></foreignObject></g></g><g class="edgeLabel"><g transform="translate(0, 0)" class="label"><foreignObject height="0" width="0"><div style="display: table-cell; white-space: nowrap; line-height: 1.5; max-width: 200px; text-align: center;" class="labelBkg" xmlns="http://www.w3.org/1999/xhtml"><span class="edgeLabel"></span></div></foreignObject></g></g><g class="edgeLabel"><g transform="translate(0, 0)" class="label"><foreignObject height="0" width="0"><div style="display: table-cell; white-space: nowrap; line-height: 1.5; max-width: 200px; text-align: center;" class="labelBkg" xmlns="http://www.w3.org/1999/xhtml"><span class="edgeLabel"></span></div></foreignObject></g></g><g transform="translate(1882.9609375, 791)" class="edgeLabel"><g transform="translate(-41.9921875, -12)" class="label"><foreignObject height="24" width="83.984375"><div style="display: table-cell; white-space: nowrap; line-height: 1.5; max-width: 200px; text-align: center;" class="labelBkg" xmlns="http://www.w3.org/1999/xhtml"><span class="edgeLabel"><p>direct reply</p></span></div></foreignObject></g></g><g transform="translate(1700.86555, 587)" class="edgeLabel"><g transform="translate(-38.40625, -12)" class="label"><foreignObject height="24" width="76.8125"><div style="display: table-cell; white-space: nowrap; line-height: 1.5; max-width: 200px; text-align: center;" class="labelBkg" xmlns="http://www.w3.org/1999/xhtml"><span class="edgeLabel"><p>arms flows</p></span></div></foreignObject></g></g><g transform="translate(1908.84402, 463.20265)" class="edgeLabel"><g transform="translate(-27.875, -12)" class="label"><foreignObject height="24" width="55.75"><div style="display: table-cell; white-space: nowrap; line-height: 1.5; max-width: 200px; text-align: center;" class="labelBkg" xmlns="http://www.w3.org/1999/xhtml"><span class="edgeLabel"><p>AP send</p></span></div></foreignObject></g></g></g><g class="nodes"><g transform="translate(119.8828125, 731)" id="flowchart-web-0" class="node default"><rect height="54" width="126.78125" y="-27" x="-63.390625" style="" class="basic label-container"/><g transform="translate(-33.390625, -12)" style="" class="label"><rect/><foreignObject height="24" width="66.78125"><div style="display: table-cell; white-space: nowrap; line-height: 1.5; max-width: 200px; text-align: center;" xmlns="http://www.w3.org/1999/xhtml"><span class="nodeLabel"><p>Web chat</p></span></div></foreignObject></g></g><g transform="translate(119.8828125, 198)" id="flowchart-tg-1" class="node default"><rect height="54" width="125.40625" y="-27" x="-62.703125" style="" class="basic label-container"/><g transform="translate(-32.703125, -12)" style="" class="label"><rect/><foreignObject height="24" width="65.40625"><div style="display: table-cell; white-space: nowrap; line-height: 1.5; max-width: 200px; text-align: center;" xmlns="http://www.w3.org/1999/xhtml"><span class="nodeLabel"><p>Telegram</p></span></div></foreignObject></g></g><g transform="translate(119.8828125, 939)" id="flowchart-sl-2" class="node default"><rect height="54" width="96.8125" y="-27" x="-48.40625" style="" class="basic label-container"/><g transform="translate(-18.40625, -12)" style="" class="label"><rect/><foreignObject height="24" width="36.8125"><div style="display: table-cell; white-space: nowrap; line-height: 1.5; max-width: 200px; text-align: center;" xmlns="http://www.w3.org/1999/xhtml"><span class="nodeLabel"><p>Slack</p></span></div></foreignObject></g></g><g transform="translate(119.8828125, 835)" id="flowchart-dc-3" class="node default"><rect height="54" width="112.5" y="-27" x="-56.25" style="" class="basic label-container"/><g transform="translate(-26.25, -12)" style="" class="label"><rect/><foreignObject height="24" width="52.5"><div style="display: table-cell; white-space: nowrap; line-height: 1.5; max-width: 200px; text-align: center;" xmlns="http://www.w3.org/1999/xhtml"><span class="nodeLabel"><p>Discord</p></span></div></foreignObject></g></g><g transform="translate(119.8828125, 505)" id="flowchart-hook-4" class="node default"><rect height="78" width="173.765625" y="-39" x="-86.8828125" style="" class="basic label-container"/><g transform="translate(-56.8828125, -24)" style="" class="label"><rect/><foreignObject height="48" width="113.765625"><div style="display: table-cell; white-space: nowrap; line-height: 1.5; max-width: 200px; text-align: center;" xmlns="http://www.w3.org/1999/xhtml"><span class="nodeLabel"><p>External system<br />webhook POST</p></span></div></foreignObject></g></g><g transform="translate(2079.953125, 134)" id="flowchart-api-5" class="node default apcls"><rect height="102" width="260" y="-51" x="-130" style="fill:#e8f0fe !important;stroke:#4285f4 !important" class="basic label-container"/><g transform="translate(-100, -36)" style="color:#111 !important" class="label"><rect/><foreignObject height="72" width="200"><div xmlns="http://www.w3.org/1999/xhtml" style="color: rgb(17, 17, 17) !important; display: table; white-space: break-spaces; line-height: 1.5; max-width: 200px; text-align: center; width: 200px;"><span class="nodeLabel" style="color:#111 !important"><p>Integration triggers<br />Gmail new-email · Box new-file · GitHub new-PR</p></span></div></foreignObject></g></g><g transform="translate(412.3671875, 82)" id="flowchart-clk-6" class="node default apcls"><rect height="78" width="211.203125" y="-39" x="-105.6015625" style="fill:#e8f0fe !important;stroke:#4285f4 !important" class="basic label-container"/><g transform="translate(-75.6015625, -24)" style="color:#111 !important" class="label"><rect/><foreignObject height="48" width="151.203125"><div xmlns="http://www.w3.org/1999/xhtml" style="color: rgb(17, 17, 17) !important; display: table-cell; white-space: nowrap; line-height: 1.5; max-width: 200px; text-align: center;"><span class="nodeLabel" style="color:#111 !important"><p>Schedule / poll clock<br />CRON · POLL</p></span></div></foreignObject></g></g><g transform="translate(412.3671875, 198)" id="flowchart-tgp-7" class="node default apcls"><rect height="54" width="169.078125" y="-27" x="-84.5390625" style="fill:#e8f0fe !important;stroke:#4285f4 !important" class="basic label-container"/><g transform="translate(-54.5390625, -12)" style="color:#111 !important" class="label"><rect/><foreignObject height="24" width="109.078125"><div xmlns="http://www.w3.org/1999/xhtml" style="color: rgb(17, 17, 17) !important; display: table-cell; white-space: nowrap; line-height: 1.5; max-width: 200px; text-align: center;"><span class="nodeLabel" style="color:#111 !important"><p>Telegram piece</p></span></div></foreignObject></g></g><g transform="translate(2079.953125, 842)" id="flowchart-direct-8" class="node default dircls"><rect height="102" width="260" y="-51" x="-130" style="fill:#e0f7fa !important;stroke:#00acc1 !important" class="basic label-container"/><g transform="translate(-100, -36)" style="color:#111 !important" class="label"><rect/><foreignObject height="72" width="200"><div xmlns="http://www.w3.org/1999/xhtml" style="color: rgb(17, 17, 17) !important; display: table; white-space: break-spaces; line-height: 1.5; max-width: 200px; text-align: center; width: 200px;"><span class="nodeLabel" style="color:#111 !important"><p>Direct backends<br />slack_direct · discord_direct · box_direct</p></span></div></foreignObject></g></g><g transform="translate(722.96875, 550)" id="flowchart-invoke-9" class="node default cugacls"><rect height="102" width="260" y="-51" x="-130" style="fill:#e6f4ea !important;stroke:#34a853 !important" class="basic label-container"/><g transform="translate(-100, -36)" style="color:#111 !important" class="label"><rect/><foreignObject height="72" width="200"><div xmlns="http://www.w3.org/1999/xhtml" style="color: rgb(17, 17, 17) !important; display: table; white-space: break-spaces; line-height: 1.5; max-width: 200px; text-align: center; width: 200px;"><span class="nodeLabel" style="color:#111 !important"><p>POST /invoke seam<br />normalized envelope · X-Gateway-Token</p></span></div></foreignObject></g></g><g transform="translate(1032.96875, 548)" id="flowchart-concierge-10" class="node default cugacls"><rect height="102" width="260" y="-51" x="-130" style="fill:#e6f4ea !important;stroke:#34a853 !important" class="basic label-container"/><g transform="translate(-100, -36)" style="color:#111 !important" class="label"><rect/><foreignObject height="72" width="200"><div xmlns="http://www.w3.org/1999/xhtml" style="color: rgb(17, 17, 17) !important; display: table; white-space: break-spaces; line-height: 1.5; max-width: 200px; text-align: center; width: 200px;"><span class="nodeLabel" style="color:#111 !important"><p>Concierge ROUTER<br />answer-now · reuse or create flow · decline</p></span></div></foreignObject></g></g><g transform="translate(1321.0625, 513)" id="flowchart-runtime-11" class="node default cugacls"><rect height="78" width="216.1875" y="-39" x="-108.09375" style="fill:#e6f4ea !important;stroke:#34a853 !important" class="basic label-container"/><g transform="translate(-78.09375, -24)" style="color:#111 !important" class="label"><rect/><foreignObject height="48" width="156.1875"><div xmlns="http://www.w3.org/1999/xhtml" style="color: rgb(17, 17, 17) !important; display: table-cell; white-space: nowrap; line-height: 1.5; max-width: 200px; text-align: center;"><span class="nodeLabel" style="color:#111 !important"><p>AgentRuntime port<br />cuga or react workers</p></span></div></foreignObject></g></g><g transform="translate(1685.96875, 673)" id="flowchart-deliver-12" class="node default cugacls"><rect height="102" width="260" y="-51" x="-130" style="fill:#e6f4ea !important;stroke:#34a853 !important" class="basic label-container"/><g transform="translate(-100, -36)" style="color:#111 !important" class="label"><rect/><foreignObject height="72" width="200"><div xmlns="http://www.w3.org/1999/xhtml" style="color: rgb(17, 17, 17) !important; display: table; white-space: break-spaces; line-height: 1.5; max-width: 200px; text-align: center; width: 200px;"><span class="nodeLabel" style="color:#111 !important"><p>Delivery<br />direct-channel · AP send-step · capture</p></span></div></foreignObject></g></g><g transform="translate(1685.96875, 326.5)" id="flowchart-mcp-13" class="node default"><polygon transform="translate(-99.40625,31.5)" class="label-container" points="0,0 198.8125,0 198.8125,-63 0,-63 0,0 -8,0 206.8125,0 206.8125,-63 -8,-63 -8,0"/><g transform="translate(-91.90625, -24)" style="" class="label"><rect/><foreignObject height="48" width="183.8125"><div style="display: table-cell; white-space: nowrap; line-height: 1.5; max-width: 200px; text-align: center;" xmlns="http://www.w3.org/1999/xhtml"><span class="nodeLabel"><p>MCP tool servers<br />cuga-web/finance/geo/…</p></span></div></foreignObject></g></g></g></g></g></svg>